<?xml version="1.0" standalone="no"?><!DOCTYPE svg PUBLIC "-//W3C//DTD SVG 1.1//EN" "http://www.w3.org/Graphics/SVG/1.1/DTD/svg11.dtd"><svg t="1685100416702" class="icon" viewBox="0 0 1024 1024" version="1.1" xmlns="http://www.w3.org/2000/svg" p-id="3429" xmlns:xlink="http://www.w3.org/1999/xlink" width="200" height="200"><path d="M387.389958 580.324108c0 51.826366-15.230889 93.888344-34.044374 93.888344-18.761296 0-34.020838-42.061978-34.020838-93.888344 0-51.856042 15.259542-93.888344 34.020838-93.888344C372.160091 486.434741 387.389958 528.468067 387.389958 580.324108z" fill="#CA2188" p-id="3430"></path><path d="M706.582697 580.324108c0 51.826366-15.232936 93.888344-34.020838 93.888344-18.814508 0-34.020838-42.061978-34.020838-93.888344 0-51.856042 15.20633-93.888344 34.020838-93.888344C691.350784 486.434741 706.582697 528.468067 706.582697 580.324108z" fill="#CA2188" p-id="3431"></path><path d="M511.794315 125.000945c-213.885322 0-387.255904 173.346023-387.255904 387.257951 0 213.858716 173.370583 387.255904 387.255904 387.255904 213.858716 0 387.255904-173.396165 387.255904-387.255904C899.05022 298.346969 725.653031 125.000945 511.794315 125.000945zM511.794315 854.92628c-189.272761 0-342.670453-153.421228-342.670453-342.668407 0-12.989849 0.852414-25.747407 2.269693-38.375006 61.802578-1.417279 293.160853-14.97404 342.023724-134.738727 48.039109 117.780497 272.441972 132.781142 338.777797 134.686539 1.393743 12.604062 2.269693 25.385157 2.269693 38.428218C854.464769 701.506075 701.041494 854.92628 511.794315 854.92628z" fill="#CA2188" p-id="3432"></path></svg>