<?xml version="1.0" standalone="no"?><!DOCTYPE svg PUBLIC "-//W3C//DTD SVG 1.1//EN" "http://www.w3.org/Graphics/SVG/1.1/DTD/svg11.dtd"><svg t="1685100480224" class="icon" viewBox="0 0 1204 1024" version="1.1" xmlns="http://www.w3.org/2000/svg" p-id="6295" xmlns:xlink="http://www.w3.org/1999/xlink" width="235.15625" height="200"><path d="M600.275862 1013.406897c-296.606897 0-501.406897-222.455172-501.406896-501.406897C102.4 236.57931 324.855172 10.593103 600.275862 10.593103c275.42069 0 501.406897 222.455172 501.406897 501.406897 0 275.42069-204.8 501.406897-501.406897 501.406897z m0-935.724138c-240.110345 0-434.317241 194.206897-434.317241 434.317241 0 112.993103 42.372414 215.393103 112.993103 293.075862 63.558621-31.77931 38.841379-3.531034 123.586207-38.841379s105.931034-45.903448 105.931035-45.903449v-81.213793s-31.77931-24.717241-42.372414-98.868965c-21.186207 7.062069-24.717241-24.717241-28.248276-42.372414 0-17.655172-10.593103-74.151724 14.124138-67.089655-3.531034-35.310345-7.062069-70.62069-7.062069-88.275862 7.062069-63.558621 67.089655-127.117241 158.896552-130.648276 109.462069 3.531034 151.834483 70.62069 158.896551 130.648276 0 17.655172-3.531034 49.434483-7.062069 88.275862 24.717241-3.531034 14.124138 49.434483 14.124138 67.089655s-7.062069 45.903448-28.248276 42.372414c-10.593103 74.151724-42.372414 98.868966-42.372413 98.868965v81.213793s21.186207 10.593103 105.931034 45.903449c81.213793 35.310345 60.027586 10.593103 123.586207 42.372414 70.62069-77.682759 112.993103-180.082759 112.993103-293.075863C1038.124138 271.889655 843.917241 77.682759 600.275862 77.682759z m0 0" fill="#FD7B4A" p-id="6296"></path></svg>